<svg width="100" height="100" viewBox="0 0 100 100" fill="none" xmlns="http://www.w3.org/2000/svg">
<path d="M50 6.25C25.8398 6.25 6.25 25.8398 6.25 50C6.25 74.1602 25.8398 93.75 50 93.75C74.1602 93.75 93.75 74.1602 93.75 50C93.75 25.8398 74.1602 6.25 50 6.25ZM71.0254 39.2285C71.0547 39.6875 71.0547 40.166 71.0547 40.6348C71.0547 54.9707 60.1367 71.4844 40.1855 71.4844C34.0332 71.4844 28.3301 69.6973 23.5254 66.6211C24.4043 66.7188 25.2441 66.7578 26.1426 66.7578C31.2207 66.7578 35.8887 65.0391 39.6094 62.1289C34.8438 62.0312 30.8398 58.9062 29.4727 54.6094C31.1426 54.8535 32.6465 54.8535 34.3652 54.4141C31.9114 53.9155 29.7058 52.5828 28.1232 50.6424C26.5406 48.702 25.6786 46.2735 25.6836 43.7695V43.6328C27.1191 44.4434 28.8086 44.9414 30.5762 45.0098C29.0903 44.0195 27.8717 42.6778 27.0284 41.1038C26.1852 39.5298 25.7434 37.772 25.7422 35.9863C25.7422 33.9648 26.2695 32.1191 27.2168 30.5176C29.9405 33.8705 33.3392 36.6127 37.192 38.5661C41.0449 40.5194 45.2657 41.6402 49.5801 41.8555C48.0469 34.4824 53.5547 28.5156 60.1758 28.5156C63.3008 28.5156 66.1133 29.8242 68.0957 31.9336C70.5469 31.4746 72.8906 30.5566 74.9805 29.3262C74.1699 31.8359 72.4707 33.9551 70.2148 35.293C72.4023 35.0586 74.5117 34.4531 76.4648 33.6035C74.9902 35.7715 73.1445 37.6953 71.0254 39.2285Z" fill="#00AEEF"/>
<path d="M71.0254 39.2285C71.0547 39.6875 71.0547 40.166 71.0547 40.6348C71.0547 54.9707 60.1367 71.4844 40.1855 71.4844C34.0332 71.4844 28.3301 69.6973 23.5254 66.6211C24.4043 66.7188 25.2441 66.7578 26.1426 66.7578C31.2207 66.7578 35.8887 65.0391 39.6094 62.1289C34.8438 62.0312 30.8398 58.9062 29.4727 54.6094C31.1426 54.8535 32.6465 54.8535 34.3652 54.4141C31.9114 53.9155 29.7058 52.5828 28.1232 50.6424C26.5406 48.702 25.6786 46.2735 25.6836 43.7695V43.6328C27.1191 44.4434 28.8086 44.9414 30.5762 45.0098C29.0903 44.0195 27.8717 42.6778 27.0284 41.1038C26.1852 39.5298 25.7434 37.772 25.7422 35.9863C25.7422 33.9648 26.2695 32.1191 27.2168 30.5176C29.9405 33.8705 33.3392 36.6127 37.192 38.5661C41.0449 40.5194 45.2657 41.6402 49.5801 41.8555C48.0469 34.4824 53.5547 28.5156 60.1758 28.5156C63.3008 28.5156 66.1133 29.8242 68.0957 31.9336C70.5469 31.4746 72.8906 30.5566 74.9805 29.3262C74.1699 31.8359 72.4707 33.9551 70.2148 35.293C72.4023 35.0586 74.5117 34.4531 76.4648 33.6035C74.9902 35.7715 73.1445 37.6953 71.0254 39.2285Z" fill="white"/>
</svg>
