<svg width="100" height="100" viewBox="0 0 100 100" fill="none" xmlns="http://www.w3.org/2000/svg">
<path d="M75.0471 50.1006L87.5231 37.6136L99.9995 50.1002L87.5235 62.5872L75.0471 50.1006Z" fill="#00AEEF"/>
<path d="M56.2148 68.7646L68.6908 56.2776L81.1672 68.7642L68.6913 81.2512L56.2148 68.7646Z" fill="#00AEEF"/>
<path d="M37.4675 87.5146L49.9435 75.0276L62.4199 87.5142L49.9439 100.001L37.4675 87.5146Z" fill="#00AEEF"/>
<path d="M62.4921 50.005C55.6305 43.1376 44.358 43.1376 37.4964 50.005L49.9942 62.5135M31.2475 56.2593L43.7453 68.7677L31.2475 81.3988C24.3859 74.4088 24.3859 63.2493 31.2475 56.2593Z" fill="#00AEEF"/>
<path d="M0 49.9873L12.476 37.5003L24.9524 49.9869L12.4764 62.4739L0 49.9873Z" fill="black"/>
<path d="M75.0471 50.1006L87.5231 37.6136L99.9995 50.1002L87.5235 62.5872L75.0471 50.1006Z" fill="#00AEEF"/>
<path d="M18.7473 31.2373L31.2233 18.7503L43.6997 31.2369L31.2237 43.7239L18.7473 31.2373Z" fill="#192C71"/>
<path d="M37.4929 12.4873L49.9689 0.000281584L62.4453 12.4869L49.9693 24.9739L37.4929 12.4873Z" fill="#192C71"/>
<path d="M62.493 50.0046L49.9951 37.4961L37.4973 50.0046C44.4814 56.9946 55.6314 56.9946 62.493 50.0046ZM68.7419 43.7503L56.2441 31.2419L68.7419 18.7334C75.726 25.7234 75.726 36.8829 68.7419 43.7503Z" fill="#192C71"/>
<path d="M0 49.9873L12.476 37.5003L24.9524 49.9869L12.4764 62.4739L0 49.9873Z" fill="#192C71"/>
</svg>
