<svg width="100" height="100" viewBox="0 0 100 100" fill="none" xmlns="http://www.w3.org/2000/svg">
<path d="M50 2C23.49 2 2 23.49 2 50C2 76.51 23.49 98 50 98C76.51 98 98 76.51 98 50C98 23.49 76.51 2 50 2ZM38.25 69.895H28.53V38.615H38.25V69.895ZM33.33 34.775C30.26 34.775 28.275 32.6 28.275 29.91C28.275 27.165 30.32 25.055 33.455 25.055C36.59 25.055 38.51 27.165 38.57 29.91C38.57 32.6 36.59 34.775 33.33 34.775ZM73.75 69.895H64.03V52.56C64.03 48.525 62.62 45.785 59.105 45.785C56.42 45.785 54.825 47.64 54.12 49.425C53.86 50.06 53.795 50.96 53.795 51.855V69.89H44.07V48.59C44.07 44.685 43.945 41.42 43.815 38.61H52.26L52.705 42.955H52.9C54.18 40.915 57.315 37.905 62.56 37.905C68.955 37.905 73.75 42.19 73.75 51.4V69.895Z" fill="#00AEEF"/>
<path d="M73.75 69.895H64.03V52.56C64.03 48.525 62.62 45.785 59.105 45.785C56.42 45.785 54.825 47.64 54.12 49.425C53.86 50.06 53.795 50.96 53.795 51.855V69.89H44.07V48.59C44.07 44.685 43.945 41.42 43.815 38.61H52.26L52.705 42.955H52.9C54.18 40.915 57.315 37.905 62.56 37.905C68.955 37.905 73.75 42.19 73.75 51.4V69.895Z" fill="white"/>
<path d="M33.33 34.775C30.26 34.775 28.275 32.6 28.275 29.91C28.275 27.165 30.32 25.055 33.455 25.055C36.59 25.055 38.51 27.165 38.57 29.91C38.57 32.6 36.59 34.775 33.33 34.775Z" fill="white"/>
<path d="M38.25 69.895H28.53V38.615H38.25V69.895Z" fill="white"/>
</svg>
